# xmcd
#
# Track frame offsets: 
#        150
#        12904
#        26741
#        43202
#        58264
#        71137
#        84561
#        102185
#        118160
#        131210
#        146583
#        162907
#
# Disc length: 2377 seconds
#
# Revision: 0
# Processed by: cddbd v1.5.2PL0 Copyright (c) Steve Scherf et al.
# Submitted via: ExactAudioCopy v1.3
#
DISCID=b209470c
DTITLE=Mary-Ann Brandon - Self Appointed Homecoming Queen
DYEAR=1990
DGENRE=Blues
TTITLE0=Self Appointed Homecoming Queen
TTITLE1=Use It Or Loose It
TTITLE2=It's A Dirty Job
TTITLE3=Why Do I Love My Man So
TTITLE4=Stone Blues
TTITLE5=New Love
TTITLE6=Don't Mess With Me, Baby
TTITLE7=Mama He Treats Your Daughter Mean
TTITLE8=It Takes Two
TTITLE9=A Little Meat On The Side
TTITLE10=Drivin' You Out Of My Mind
TTITLE11=Black Widow Spider
EXTD=
EXTT0=
EXTT1=
EXTT2=
EXTT3=
EXTT4=
EXTT5=
EXTT6=
EXTT7=
EXTT8=
EXTT9=
EXTT10=
EXTT11=
PLAYORDER=
